<svg width="284" height="36" viewBox="0 0 284 36" fill="none" xmlns="http://www.w3.org/2000/svg">
<path d="M259.721 34.992V7.00801L257.081 0.432007H270.905C273.785 0.432007 276.169 0.832006 278.057 1.63201C279.945 2.40001 281.353 3.71201 282.281 5.56801C283.209 7.42401 283.673 9.95201 283.673 13.152C283.673 17.568 282.617 20.752 280.505 22.704C278.393 24.656 275.193 25.632 270.905 25.632H269.081V34.992H259.721ZM269.081 18.768C270.617 18.768 271.753 18.352 272.489 17.52C273.257 16.688 273.641 15.2 273.641 13.056C273.641 11.424 273.497 10.192 273.209 9.36001C272.953 8.52801 272.489 7.96801 271.817 7.68001C271.177 7.36001 270.265 7.2 269.081 7.2V18.768Z" fill="white"/>
<path d="M243.395 35.472C240.259 35.472 237.731 34.944 235.811 33.888C233.891 32.8 232.483 30.976 231.587 28.416C230.723 25.824 230.291 22.272 230.291 17.76C230.291 13.248 230.723 9.71198 231.587 7.15197C232.483 4.55997 233.891 2.73598 235.811 1.67998C237.731 0.591974 240.259 0.0479736 243.395 0.0479736C246.531 0.0479736 249.059 0.591974 250.979 1.67998C252.899 2.73598 254.291 4.55997 255.155 7.15197C256.051 9.71198 256.499 13.248 256.499 17.76C256.499 22.272 256.051 25.824 255.155 28.416C254.291 30.976 252.899 32.8 250.979 33.888C249.059 34.944 246.531 35.472 243.395 35.472ZM246.419 17.664C246.419 14.912 246.323 12.816 246.131 11.376C245.971 9.90397 245.667 8.89598 245.219 8.35198C244.803 7.77598 244.195 7.48797 243.395 7.48797C242.627 7.48797 242.019 7.77598 241.571 8.35198C241.123 8.89598 240.803 9.90397 240.611 11.376C240.451 12.816 240.371 14.912 240.371 17.664C240.371 20.384 240.451 22.496 240.611 24C240.803 25.504 241.123 26.56 241.571 27.168C242.019 27.744 242.627 28.032 243.395 28.032C244.195 28.032 244.803 27.744 245.219 27.168C245.667 26.56 245.971 25.504 246.131 24C246.323 22.496 246.419 20.384 246.419 17.664Z" fill="white"/>
<path d="M229.36 8.11201H223.024V34.992H213.616V8.11201H206.608V0.432007H230.8L229.36 8.11201Z" fill="white"/>
<path d="M192.272 27.168C193.488 27.168 194.4 26.992 195.008 26.64C195.616 26.288 195.92 25.712 195.92 24.912C195.92 24.368 195.776 23.936 195.488 23.616C195.2 23.296 194.688 22.976 193.952 22.656L188.864 20.304C186.976 19.44 185.52 18.288 184.496 16.848C183.472 15.408 182.96 13.312 182.96 10.56C182.96 7.04 183.872 4.416 185.696 2.688C187.552 0.927999 190.608 0.0319996 194.864 0C196.624 0 198.224 0.0799999 199.664 0.24C201.104 0.4 202.256 0.575999 203.12 0.767999C203.984 0.928 204.416 1.008 204.416 1.008L203.456 8.736C203.456 8.736 203.056 8.688 202.256 8.592C201.488 8.496 200.528 8.416 199.376 8.352C198.224 8.256 197.104 8.208 196.016 8.208C194.864 8.208 193.984 8.384 193.376 8.736C192.8 9.056 192.512 9.68 192.512 10.608C192.512 11.12 192.736 11.552 193.184 11.904C193.632 12.224 194.256 12.56 195.056 12.912L199.136 14.688C201.312 15.648 202.896 16.848 203.888 18.288C204.88 19.696 205.376 21.712 205.376 24.336C205.376 27.888 204.448 30.624 202.592 32.544C200.736 34.464 197.68 35.44 193.424 35.472C191.312 35.472 189.344 35.328 187.52 35.04C185.696 34.784 184.08 34.48 182.672 34.128L183.632 26.4C183.632 26.4 184.016 26.464 184.784 26.592C185.584 26.72 186.64 26.848 187.952 26.976C189.264 27.104 190.704 27.168 192.272 27.168Z" fill="white"/>
<path d="M154.755 0.432007C158.051 0.432007 160.707 0.944007 162.723 1.96801C164.739 2.96001 166.211 4.67201 167.139 7.10401C168.067 9.50401 168.531 12.816 168.531 17.04C168.531 21.584 168.067 25.168 167.139 27.792C166.211 30.416 164.739 32.272 162.723 33.36C160.707 34.448 158.051 34.992 154.755 34.992H143.331V7.00801L140.691 0.432007H154.755ZM154.179 27.312C155.203 27.312 156.019 27.008 156.627 26.4C157.267 25.76 157.731 24.704 158.019 23.232C158.307 21.728 158.451 19.664 158.451 17.04C158.451 14.64 158.323 12.8 158.067 11.52C157.811 10.208 157.379 9.31201 156.771 8.83201C156.163 8.35201 155.299 8.11201 154.179 8.11201H152.691V27.312H154.179Z" fill="white"/>
<path d="M127.005 35.472C123.869 35.472 121.341 34.944 119.421 33.888C117.501 32.8 116.093 30.976 115.197 28.416C114.333 25.824 113.901 22.272 113.901 17.76C113.901 13.248 114.333 9.71198 115.197 7.15197C116.093 4.55997 117.501 2.73598 119.421 1.67998C121.341 0.591974 123.869 0.0479736 127.005 0.0479736C130.141 0.0479736 132.669 0.591974 134.589 1.67998C136.509 2.73598 137.901 4.55997 138.765 7.15197C139.661 9.71198 140.109 13.248 140.109 17.76C140.109 22.272 139.661 25.824 138.765 28.416C137.901 30.976 136.509 32.8 134.589 33.888C132.669 34.944 130.141 35.472 127.005 35.472ZM130.029 17.664C130.029 14.912 129.933 12.816 129.741 11.376C129.581 9.90397 129.277 8.89598 128.829 8.35198C128.413 7.77598 127.805 7.48797 127.005 7.48797C126.237 7.48797 125.629 7.77598 125.181 8.35198C124.733 8.89598 124.413 9.90397 124.221 11.376C124.061 12.816 123.981 14.912 123.981 17.664C123.981 20.384 124.061 22.496 124.221 24C124.413 25.504 124.733 26.56 125.181 27.168C125.629 27.744 126.237 28.032 127.005 28.032C127.805 28.032 128.413 27.744 128.829 27.168C129.277 26.56 129.581 25.504 129.741 24C129.933 22.496 130.029 20.384 130.029 17.664Z" fill="white"/>
<path d="M98.8796 35.472C95.7436 35.472 93.2157 34.944 91.2957 33.888C89.3757 32.8 87.9677 30.976 87.0717 28.416C86.2077 25.824 85.7756 22.272 85.7756 17.76C85.7756 13.248 86.2077 9.71198 87.0717 7.15197C87.9677 4.55997 89.3757 2.73598 91.2957 1.67998C93.2157 0.591974 95.7436 0.0479736 98.8796 0.0479736C102.016 0.0479736 104.544 0.591974 106.464 1.67998C108.384 2.73598 109.776 4.55997 110.64 7.15197C111.536 9.71198 111.984 13.248 111.984 17.76C111.984 22.272 111.536 25.824 110.64 28.416C109.776 30.976 108.384 32.8 106.464 33.888C104.544 34.944 102.016 35.472 98.8796 35.472ZM101.904 17.664C101.904 14.912 101.808 12.816 101.616 11.376C101.456 9.90397 101.152 8.89598 100.704 8.35198C100.288 7.77598 99.6796 7.48797 98.8796 7.48797C98.1116 7.48797 97.5036 7.77598 97.0556 8.35198C96.6076 8.89598 96.2876 9.90397 96.0956 11.376C95.9356 12.816 95.8557 14.912 95.8557 17.664C95.8557 20.384 95.9356 22.496 96.0956 24C96.2876 25.504 96.6076 26.56 97.0556 27.168C97.5036 27.744 98.1116 28.032 98.8796 28.032C99.6796 28.032 100.288 27.744 100.704 27.168C101.152 26.56 101.456 25.504 101.616 24C101.808 22.496 101.904 20.384 101.904 17.664Z" fill="white"/>
<path d="M85.8064 0.432007L84.3664 8.11201H75.5344V14.64H83.5024L82.0624 22.32H75.5344V34.992H66.1744V7.00801L63.5344 0.432007H85.8064Z" fill="white"/>
<path d="M34.4059 30.336L33.4939 34.992H23.4619L30.3739 4.75197L29.2699 0.0479736H43.7659L51.3019 34.992H41.3659L40.4539 30.336H34.4059ZM35.3659 22.896H39.4459L37.4299 10.32L35.3659 22.896Z" fill="white"/>
<path d="M9.60001 27.168C10.816 27.168 11.728 26.992 12.336 26.64C12.944 26.288 13.248 25.712 13.248 24.912C13.248 24.368 13.104 23.936 12.816 23.616C12.528 23.296 12.016 22.976 11.28 22.656L6.192 20.304C4.304 19.44 2.84801 18.288 1.82401 16.848C0.800005 15.408 0.28801 13.312 0.28801 10.56C0.28801 7.04 1.2 4.416 3.024 2.688C4.88 0.927999 7.936 0.0319996 12.192 0C13.952 0 15.552 0.0799999 16.992 0.24C18.432 0.4 19.584 0.575999 20.448 0.767999C21.312 0.928 21.744 1.008 21.744 1.008L20.784 8.736C20.784 8.736 20.384 8.688 19.584 8.592C18.816 8.496 17.856 8.416 16.704 8.352C15.552 8.256 14.432 8.208 13.344 8.208C12.192 8.208 11.312 8.384 10.704 8.736C10.128 9.056 9.84 9.68 9.84 10.608C9.84 11.12 10.064 11.552 10.512 11.904C10.96 12.224 11.584 12.56 12.384 12.912L16.464 14.688C18.64 15.648 20.224 16.848 21.216 18.288C22.208 19.696 22.704 21.712 22.704 24.336C22.704 27.888 21.776 30.624 19.92 32.544C18.064 34.464 15.008 35.44 10.752 35.472C8.64 35.472 6.67201 35.328 4.84801 35.04C3.02401 34.784 1.408 34.48 0 34.128L0.960007 26.4C0.960007 26.4 1.344 26.464 2.112 26.592C2.912 26.72 3.968 26.848 5.28 26.976C6.592 27.104 8.03201 27.168 9.60001 27.168Z" fill="white"/>
</svg>
